# xmcd CD database file
#
# Track frame offsets:
#	150
#	17100
#	40516
#	58520
#	75750
#	96669
#	114225
#	127772
#	146175
#	168574
#
# Disc length: 2457 seconds
#
# Revision: 0
# Processed by: cddbd v1.4PL0 Copyright (c) Steve Scherf et al.
# Submitted via: Feurio! 1.66 - http://www.feurio.com
#
DISCID=7709970a
DTITLE=Steff Mahan - Steff Mahan
DYEAR=1900
DGENRE=
TTITLE0=I Don't Wanna Know
TTITLE1=I Tend to Lose Things
TTITLE2=All We Never Had
TTITLE3=Happened to See the Moon
TTITLE4=Love Me Enough
TTITLE5=Circle of Love
TTITLE6=Finally Fine
TTITLE7=When I Understood Love
TTITLE8=What If
TTITLE9=State of the Heart
EXTD=
EXTT0=
EXTT1=
EXTT2=
EXTT3=
EXTT4=
EXTT5=
EXTT6=
EXTT7=
EXTT8=
EXTT9=
PLAYORDER=
